HIERARCHY
ROOT root
{
	OFFSET	0	13.1	24.9
	CHANNELS 6  Xposition Yposition Zposition Xrotation Yrotation Zrotation
	JOINT spine_1
	{
		OFFSET	0	9.99999	0
		CHANNELS 3  Xrotation Yrotation Zrotation
		JOINT spine_2
		{
			OFFSET	0	112	-10
			CHANNELS 3  Xrotation Yrotation Zrotation
			JOINT spine_3
			{
				OFFSET	0	206.5	19.3
				CHANNELS 3  Xrotation Yrotation Zrotation
				JOINT spine_4
				{
					OFFSET	0	110.4	14.6
					CHANNELS 3  Xrotation Yrotation Zrotation
					JOINT neck_1
					{
						OFFSET	0	71.8	-50.3
						CHANNELS 3  Xrotation Yrotation Zrotation
						JOINT neck_2
						{
							OFFSET	0	86.2	-25.8
							CHANNELS 3  Xrotation Yrotation Zrotation
							JOINT head_ee
							{
								OFFSET	0	179.8	-8.7
								CHANNELS 3  Xrotation Yrotation Zrotation
								End Site
								{
									OFFSET	1	0	0
								}
							}
						}
					}
					JOINT left_clavicle
					{
						OFFSET	-43.2	22.4	-70.8
						CHANNELS 3  Xrotation Yrotation Zrotation
						JOINT left_shoulder
						{
							OFFSET	-93.9	-5.79999	48.7
							CHANNELS 3  Xrotation Yrotation Zrotation
							JOINT left_elbow
							{
								OFFSET	-291.4	-30.8	15.2
								CHANNELS 3  Xrotation Yrotation Zrotation
								JOINT left_lowarm_twist
								{
									OFFSET	-110.7	-3.89999	13.6
									CHANNELS 3  Xrotation Yrotation Zrotation
									JOINT left_hand
									{
										OFFSET	-110.7	-3.89999	13.6
										CHANNELS 3  Xrotation Yrotation Zrotation
										JOINT left_ee
										{
											OFFSET	-80.8	-5.10001	12.1
											CHANNELS 3  Xrotation Yrotation Zrotation
											End Site
											{
												OFFSET	1	0	0
											}
										}
									}
								}
							}
						}
					}
					JOINT right_clavicle
					{
						OFFSET	43.2	22.4	-70.8
						CHANNELS 3  Xrotation Yrotation Zrotation
						JOINT right_shoulder
						{
							OFFSET	93.9	-5.79999	48.7
							CHANNELS 3  Xrotation Yrotation Zrotation
							JOINT right_elbow
							{
								OFFSET	291.4	-30.8	15.2
								CHANNELS 3  Xrotation Yrotation Zrotation
								JOINT right_lowarm_twist
								{
									OFFSET	110.7	-3.89999	13.6
									CHANNELS 3  Xrotation Yrotation Zrotation
									JOINT right_hand
									{
										OFFSET	110.7	-3.89999	13.6
										CHANNELS 3  Xrotation Yrotation Zrotation
										JOINT right_ee
										{
											OFFSET	80.8	-5.10001	12.1
											CHANNELS 3  Xrotation Yrotation Zrotation
											End Site
											{
												OFFSET	1	0	0
											}
										}
									}
								}
							}
						}
					}
				}
			}
		}
	}
	JOINT left_hip
	{
		OFFSET	-82.8	-127.5	0.300001
		CHANNELS 3  Xrotation Yrotation Zrotation
		JOINT left_knee
		{
			OFFSET	-28.2	-396.7	2.2
			CHANNELS 3  Xrotation Yrotation Zrotation
			JOINT left_ankle
			{
				OFFSET	-11.7	-411.3	35.4
				CHANNELS 3  Xrotation Yrotation Zrotation
				JOINT left_toes
				{
					OFFSET	0	-60	-88.6
					CHANNELS 3  Xrotation Yrotation Zrotation
					JOINT left_foot_ee
					{
						OFFSET	-22.5	-16.5	-42.2
						CHANNELS 3  Xrotation Yrotation Zrotation
						End Site
						{
							OFFSET	1	0	0
						}
					}
				}
			}
		}
	}
	JOINT right_hip
	{
		OFFSET	82.8	-127.5	0.300001
		CHANNELS 3  Xrotation Yrotation Zrotation
		JOINT right_knee
		{
			OFFSET	28.2	-396.7	2.2
			CHANNELS 3  Xrotation Yrotation Zrotation
			JOINT right_ankle
			{
				OFFSET	11.7	-411.3	35.4
				CHANNELS 3  Xrotation Yrotation Zrotation
				JOINT right_toes
				{
					OFFSET	0	-60	-88.6
					CHANNELS 3  Xrotation Yrotation Zrotation
					JOINT right_foot_ee
					{
						OFFSET	22.5	-16.5	-42.2
						CHANNELS 3  Xrotation Yrotation Zrotation
						End Site
						{
							OFFSET	1	0	0
						}
					}
				}
			}
		}
	}
}
MOTION
Frames: 6
Frame Time: 0.02
1855.6 707.297 -492.19 91.9136 -86.6945 90.209 -0.62636 0.0683237 0.849968 -0.625958 0.0141016 0.852593 -0.625499 -0.174542 0.834656 -0.626469 -0.0405384 0.851746 -13.8541 4.05637 -2.39667 -13.9 9.20314 -1.00949 -0.0 0.0 -0.0 4.16966 21.9255 8.46993 -10.7725 -18.0641 68.0975 0.190522 -5.39168 0.00897091 -16.2929 -0.849755 1.89511 -1.23469 25.5134 3.14153 -0.0 0.0 -0.0 10.483 -2.68389 -20.4811 12.7066 2.29682 -64.3414 1.76609 41.178 -0.663489 -60.3185 5.32239 -5.11099 6.27833 -22.6323 -54.759 0.0 0.0 0.0 21.0648 -6.76885 1.50793 -45.1598 -0.827224 6.70498 -19.2527 26.1371 3.03275 -39.9894 0.0 0.0 -0.0 0.0 -0.0 3.9502 11.3251 -0.209647 -2.30059 -0.0878647 -0.342107 15.7352 -8.6728 2.18913 -12.9911 0.0 0.0 0.0 0.0 0.0 
1866.85 707.695 -489.994 95.9985 -87.1012 94.1655 -0.72812 0.163139 0.910989 -0.727664 0.104842 0.919523 -0.725635 -0.102423 0.919796 -0.726813 0.0441209 0.924428 -11.946 4.36638 -1.35517 -11.9839 9.15041 -0.0759769 -0.0 0.0 -0.0 4.07634 22.6719 8.33065 -11.6769 -17.6547 67.4262 0.207216 -5.86095 0.0106077 -16.3463 -0.85341 1.90089 -1.30861 28.2173 3.91025 -0.0 0.0 -0.0 10.8254 -0.912697 -21.3121 13.2153 2.94331 -63.8172 1.92378 43.6163 -0.769834 -58.7412 5.12662 -5.06027 5.99869 -21.7474 -51.652 0.0 0.0 0.0 22.8149 -5.48076 1.09515 -39.7333 -0.44989 5.96093 -18.1788 26.0215 2.86024 -40.1682 0.0 0.0 -0.0 0.0 -0.0 4.44107 10.5706 -0.104159 -4.63099 -0.162778 -0.691885 17.7707 -9.6137 2.4526 -12.6109 0.0 0.0 0.0 0.0 0.0 
1876.25 708.427 -488.967 97.463 -87.3868 95.4113 -0.776201 0.181536 1.02026 -0.775629 0.11625 1.02975 -0.773097 -0.116685 1.0297 -0.774574 0.0473915 1.0352 -11.3286 3.85307 -1.4716 -11.3525 8.25164 -0.378253 -0.0 0.0 -0.0 4.10991 24.0535 8.3632 -12.2776 -18.9626 66.1777 0.231082 -6.53046 0.0131835 -16.6232 -0.872448 1.93079 -1.08708 28.3024 5.14868 -0.0 0.0 -0.0 10.8814 1.4336 -21.5716 12.5913 3.05156 -63.4795 2.0493 45.4258 -0.857858 -57.4214 4.96392 -5.01369 5.15124 -20.5981 -43.4918 0.0 0.0 0.0 24.7018 -5.26103 0.656144 -34.1728 -0.138247 5.16565 -4.49784 26.4937 0.698504 -39.085 0.0 0.0 -0.0 0.0 -0.0 3.82572 10.6356 0.0402087 -4.9352 -0.171505 -0.737756 20.3496 -5.64472 2.77481 -12.2673 0.0 0.0 0.0 0.0 0.0 
1888.33 705.705 -487.938 104.323 -88.1256 102.281 -0.692734 0.245896 1.01432 -0.69218 0.180857 1.02791 -0.688476 -0.0517492 1.04241 -0.689975 0.113521 1.0375 -9.46404 3.46717 -0.481533 -9.47471 6.84149 0.362352 -0.0 0.0 -0.0 4.04613 24.1289 8.27479 -13.1726 -17.1354 65.1806 0.252226 -7.1221 0.0156966 -16.8596 -0.888822 1.95625 -0.728361 27.788 6.89661 -0.0 0.0 -0.0 11.0178 2.43461 -21.9124 12.7899 3.51695 -62.8188 2.13538 46.6032 -0.919797 -57.3716 4.9578 -5.01186 4.74165 -20.8208 -40.0861 0.0 0.0 0.0 26.5154 -7.55349 1.26015 -30.0864 0.0407469 4.56429 -0.234927 28.0662 0.0365241 -38.6381 0.0 0.0 -0.0 0.0 -0.0 3.98889 11.9619 0.0575083 -5.56157 -0.188704 -0.832343 22.4424 -7.08373 3.02885 -12.5436 0.0 0.0 0.0 0.0 0.0 
1900.72 702.42 -486.121 120.509 -88.9461 118.446 -0.559938 0.285381 1.02498 -0.55938 0.219584 1.04106 -0.554925 -0.01442 1.06387 -0.556472 0.153769 1.0528 -10.3684 3.74442 -0.281469 -10.3863 7.24679 0.681004 -0.0 0.0 -0.0 4.24198 24.7345 8.5329 -13.5692 -17.2119 64.0758 0.219993 -6.21959 0.0119521 -17.1158 -0.906681 1.98377 -0.517337 28.1697 8.2032 -0.0 0.0 -0.0 11.1808 3.80348 -22.3236 13.8226 3.88491 -63.2192 2.22975 47.8377 -0.989068 -56.1773 4.81154 -4.96636 4.22869 -20.0893 -35.9071 0.0 0.0 0.0 26.9757 -8.37229 1.12791 -27.2236 0.140355 4.13627 7.65966 29.2959 -1.17732 -36.4246 0.0 0.0 -0.0 0.0 -0.0 4.6157 13.5249 -0.0088836 -5.93628 -0.198499 -0.889014 24.5448 -9.0555 3.28055 -11.7444 0.0 0.0 0.0 0.0 0.0 
1910.84 699.179 -487.785 134.341 -88.8579 132.029 -0.418371 0.423414 1.14491 -0.41771 0.349708 1.16953 -0.409969 0.0874195 1.21755 -0.411929 0.278599 1.18847 -9.75269 4.00966 0.473735 -9.76722 7.21815 1.44539 -0.0 0.0 -0.0 4.15964 24.777 8.42071 -14.1446 -17.1935 63.9096 0.233175 -6.58908 0.0134225 -17.2941 -0.919178 2.00286 -0.316334 27.779 9.16266 -0.0 0.0 -0.0 11.3426 5.70055 -22.7418 14.2479 3.47956 -62.8296 2.20202 47.4808 -0.968567 -55.8305 4.76924 -4.95257 3.35716 -18.5039 -29.1552 0.0 0.0 0.0 28.4181 -9.77821 0.323268 -24.6065 0.21259 3.74117 14.5648 28.1276 -2.17361 -34.3377 0.0 0.0 -0.0 0.0 -0.0 3.25236 14.526 0.328223 -5.13804 -0.177188 -0.768366 26.8602 -6.26877 3.5433 -11.4037 0.0 0.0 0.0 0.0 0.0 
